<svg width="178" height="40" viewBox="0 0 178 40" fill="none" xmlns="http://www.w3.org/2000/svg">
<path d="M17.748 37V29.3H20.839C21.6383 29.3 22.247 29.487 22.665 29.861C23.0903 30.2277 23.303 30.7007 23.303 31.28C23.303 31.764 23.171 32.1527 22.907 32.446C22.6503 32.732 22.335 32.9263 21.961 33.029C22.401 33.117 22.764 33.337 23.05 33.689C23.336 34.0337 23.479 34.437 23.479 34.899C23.479 35.5077 23.259 36.01 22.819 36.406C22.379 36.802 21.7557 37 20.949 37H17.748ZM19.156 32.534H20.63C21.026 32.534 21.3303 32.4423 21.543 32.259C21.7557 32.0757 21.862 31.8153 21.862 31.478C21.862 31.1553 21.7557 30.9023 21.543 30.719C21.3377 30.5283 21.026 30.433 20.608 30.433H19.156V32.534ZM19.156 35.856H20.729C21.147 35.856 21.4697 35.7607 21.697 35.57C21.9317 35.372 22.049 35.097 22.049 34.745C22.049 34.3857 21.928 34.1033 21.686 33.898C21.444 33.6927 21.1177 33.59 20.707 33.59H19.156V35.856ZM27.3055 37.132C26.7555 37.132 26.2678 37.0147 25.8425 36.78C25.4171 36.5453 25.0835 36.2153 24.8415 35.79C24.5995 35.3647 24.4785 34.8733 24.4785 34.316C24.4785 33.7513 24.5958 33.249 24.8305 32.809C25.0725 32.369 25.4025 32.028 25.8205 31.786C26.2458 31.5367 26.7445 31.412 27.3165 31.412C27.8518 31.412 28.3248 31.5293 28.7355 31.764C29.1461 31.9987 29.4651 32.3213 29.6925 32.732C29.9271 33.1353 30.0445 33.5863 30.0445 34.085C30.0445 34.1657 30.0408 34.25 30.0335 34.338C30.0335 34.426 30.0298 34.5177 30.0225 34.613H25.8755C25.9048 35.0383 26.0515 35.372 26.3155 35.614C26.5868 35.856 26.9131 35.977 27.2945 35.977C27.5805 35.977 27.8188 35.9147 28.0095 35.79C28.2075 35.658 28.3541 35.4893 28.4495 35.284H29.8795C29.7768 35.6287 29.6045 35.944 29.3625 36.23C29.1278 36.5087 28.8345 36.7287 28.4825 36.89C28.1378 37.0513 27.7455 37.132 27.3055 37.132ZM27.3165 32.556C26.9718 32.556 26.6675 32.655 26.4035 32.853C26.1395 33.0437 25.9708 33.337 25.8975 33.733H28.6145C28.5925 33.3737 28.4605 33.0877 28.2185 32.875C27.9765 32.6623 27.6758 32.556 27.3165 32.556ZM33.4837 37.132C32.9997 37.132 32.5743 37.055 32.2077 36.901C31.841 36.7397 31.5477 36.5197 31.3277 36.241C31.1077 35.9623 30.9757 35.6397 30.9317 35.273H32.3507C32.3947 35.4857 32.512 35.669 32.7027 35.823C32.9007 35.9697 33.1537 36.043 33.4617 36.043C33.7697 36.043 33.9933 35.9807 34.1327 35.856C34.2793 35.7313 34.3527 35.5883 34.3527 35.427C34.3527 35.1923 34.25 35.0347 34.0447 34.954C33.8393 34.866 33.5533 34.7817 33.1867 34.701C32.952 34.6497 32.7137 34.5873 32.4717 34.514C32.2297 34.4407 32.006 34.349 31.8007 34.239C31.6027 34.1217 31.4413 33.975 31.3167 33.799C31.192 33.6157 31.1297 33.392 31.1297 33.128C31.1297 32.644 31.3203 32.237 31.7017 31.907C32.0903 31.577 32.633 31.412 33.3297 31.412C33.975 31.412 34.4883 31.5623 34.8697 31.863C35.2583 32.1637 35.4893 32.578 35.5627 33.106H34.2317C34.151 32.7027 33.8467 32.501 33.3187 32.501C33.0547 32.501 32.8493 32.5523 32.7027 32.655C32.5633 32.7577 32.4937 32.886 32.4937 33.04C32.4937 33.2013 32.6 33.3297 32.8127 33.425C33.0253 33.5203 33.3077 33.6083 33.6597 33.689C34.041 33.777 34.3893 33.876 34.7047 33.986C35.0273 34.0887 35.284 34.2463 35.4747 34.459C35.6653 34.6643 35.7607 34.9613 35.7607 35.35C35.768 35.6873 35.68 35.9917 35.4967 36.263C35.3133 36.5343 35.0493 36.747 34.7047 36.901C34.36 37.055 33.953 37.132 33.4837 37.132ZM39.2671 37C38.6951 37 38.2368 36.8607 37.8921 36.582C37.5474 36.3033 37.3751 35.8083 37.3751 35.097V32.721H36.4401V31.544H37.3751L37.5401 30.081H38.7831V31.544H40.2571V32.721H38.7831V35.108C38.7831 35.372 38.8381 35.5553 38.9481 35.658C39.0654 35.7533 39.2634 35.801 39.5421 35.801H40.2241V37H39.2671ZM46.7491 37.132C46.1844 37.132 45.6857 37.0367 45.2531 36.846C44.8204 36.648 44.4794 36.3693 44.2301 36.01C43.9807 35.6433 43.8524 35.1997 43.8451 34.679H45.3301C45.3447 35.0383 45.4731 35.3427 45.7151 35.592C45.9644 35.834 46.3054 35.955 46.7381 35.955C47.1121 35.955 47.4091 35.867 47.6291 35.691C47.8491 35.5077 47.9591 35.2657 47.9591 34.965C47.9591 34.6497 47.8601 34.404 47.6621 34.228C47.4714 34.052 47.2147 33.909 46.8921 33.799C46.5694 33.689 46.2247 33.5717 45.8581 33.447C45.2641 33.2417 44.8094 32.9777 44.4941 32.655C44.1861 32.3323 44.0321 31.9033 44.0321 31.368C44.0247 30.9133 44.1311 30.5247 44.3511 30.202C44.5784 29.872 44.8864 29.619 45.2751 29.443C45.6637 29.2597 46.1111 29.168 46.6171 29.168C47.1304 29.168 47.5814 29.2597 47.9701 29.443C48.3661 29.6263 48.6741 29.883 48.8941 30.213C49.1214 30.543 49.2424 30.9353 49.2571 31.39H47.7501C47.7427 31.1187 47.6364 30.8803 47.4311 30.675C47.2331 30.4623 46.9544 30.356 46.5951 30.356C46.2871 30.3487 46.0267 30.4257 45.8141 30.587C45.6087 30.741 45.5061 30.9683 45.5061 31.269C45.5061 31.5257 45.5867 31.731 45.7481 31.885C45.9094 32.0317 46.1294 32.1563 46.4081 32.259C46.6867 32.3617 47.0057 32.4717 47.3651 32.589C47.7464 32.721 48.0947 32.875 48.4101 33.051C48.7254 33.227 48.9784 33.4617 49.1691 33.755C49.3597 34.041 49.4551 34.4113 49.4551 34.866C49.4551 35.2693 49.3524 35.6433 49.1471 35.988C48.9417 36.3327 48.6374 36.6113 48.2341 36.824C47.8307 37.0293 47.3357 37.132 46.7491 37.132ZM53.3015 37.132C52.7515 37.132 52.2639 37.0147 51.8385 36.78C51.4132 36.5453 51.0795 36.2153 50.8375 35.79C50.5955 35.3647 50.4745 34.8733 50.4745 34.316C50.4745 33.7513 50.5919 33.249 50.8265 32.809C51.0685 32.369 51.3985 32.028 51.8165 31.786C52.2419 31.5367 52.7405 31.412 53.3125 31.412C53.8479 31.412 54.3209 31.5293 54.7315 31.764C55.1422 31.9987 55.4612 32.3213 55.6885 32.732C55.9232 33.1353 56.0405 33.5863 56.0405 34.085C56.0405 34.1657 56.0369 34.25 56.0295 34.338C56.0295 34.426 56.0259 34.5177 56.0185 34.613H51.8715C51.9009 35.0383 52.0475 35.372 52.3115 35.614C52.5829 35.856 52.9092 35.977 53.2905 35.977C53.5765 35.977 53.8149 35.9147 54.0055 35.79C54.2035 35.658 54.3502 35.4893 54.4455 35.284H55.8755C55.7729 35.6287 55.6005 35.944 55.3585 36.23C55.1239 36.5087 54.8305 36.7287 54.4785 36.89C54.1339 37.0513 53.7415 37.132 53.3015 37.132ZM53.3125 32.556C52.9679 32.556 52.6635 32.655 52.3995 32.853C52.1355 33.0437 51.9669 33.337 51.8935 33.733H54.6105C54.5885 33.3737 54.4565 33.0877 54.2145 32.875C53.9725 32.6623 53.6719 32.556 53.3125 32.556ZM57.2248 37V29.08H58.6328V37H57.2248ZM62.7224 37.132C62.1724 37.132 61.6848 37.0147 61.2594 36.78C60.8341 36.5453 60.5004 36.2153 60.2584 35.79C60.0164 35.3647 59.8954 34.8733 59.8954 34.316C59.8954 33.7513 60.0128 33.249 60.2474 32.809C60.4894 32.369 60.8194 32.028 61.2374 31.786C61.6628 31.5367 62.1614 31.412 62.7334 31.412C63.2688 31.412 63.7418 31.5293 64.1524 31.764C64.5631 31.9987 64.8821 32.3213 65.1094 32.732C65.3441 33.1353 65.4614 33.5863 65.4614 34.085C65.4614 34.1657 65.4578 34.25 65.4504 34.338C65.4504 34.426 65.4468 34.5177 65.4394 34.613H61.2924C61.3218 35.0383 61.4684 35.372 61.7324 35.614C62.0038 35.856 62.3301 35.977 62.7114 35.977C62.9974 35.977 63.2358 35.9147 63.4264 35.79C63.6244 35.658 63.7711 35.4893 63.8664 35.284H65.2964C65.1938 35.6287 65.0214 35.944 64.7794 36.23C64.5448 36.5087 64.2514 36.7287 63.8994 36.89C63.5548 37.0513 63.1624 37.132 62.7224 37.132ZM62.7334 32.556C62.3888 32.556 62.0844 32.655 61.8204 32.853C61.5564 33.0437 61.3878 33.337 61.3144 33.733H64.0314C64.0094 33.3737 63.8774 33.0877 63.6354 32.875C63.3934 32.6623 63.0928 32.556 62.7334 32.556ZM69.3187 37.132C68.7613 37.132 68.27 37.011 67.8447 36.769C67.4193 36.527 67.082 36.1897 66.8327 35.757C66.5907 35.3243 66.4697 34.8293 66.4697 34.272C66.4697 33.7147 66.5907 33.2197 66.8327 32.787C67.082 32.3543 67.4193 32.017 67.8447 31.775C68.27 31.533 68.7613 31.412 69.3187 31.412C70.0153 31.412 70.602 31.5953 71.0787 31.962C71.5553 32.3213 71.8597 32.82 71.9917 33.458H70.5067C70.4333 33.194 70.2867 32.9887 70.0667 32.842C69.854 32.688 69.601 32.611 69.3077 32.611C68.919 32.611 68.589 32.7577 68.3177 33.051C68.0463 33.3443 67.9107 33.7513 67.9107 34.272C67.9107 34.7927 68.0463 35.1997 68.3177 35.493C68.589 35.7863 68.919 35.933 69.3077 35.933C69.601 35.933 69.854 35.8597 70.0667 35.713C70.2867 35.5663 70.4333 35.3573 70.5067 35.086H71.9917C71.8597 35.702 71.5553 36.197 71.0787 36.571C70.602 36.945 70.0153 37.132 69.3187 37.132ZM75.5972 37C75.0252 37 74.5668 36.8607 74.2222 36.582C73.8775 36.3033 73.7052 35.8083 73.7052 35.097V32.721H72.7702V31.544H73.7052L73.8702 30.081H75.1132V31.544H76.5872V32.721H75.1132V35.108C75.1132 35.372 75.1682 35.5553 75.2782 35.658C75.3955 35.7533 75.5935 35.801 75.8722 35.801H76.5542V37H75.5972ZM78.5551 30.697C78.2984 30.697 78.0857 30.62 77.9171 30.466C77.7557 30.312 77.6751 30.1177 77.6751 29.883C77.6751 29.6483 77.7557 29.4577 77.9171 29.311C78.0857 29.157 78.2984 29.08 78.5551 29.08C78.8117 29.08 79.0207 29.157 79.1821 29.311C79.3507 29.4577 79.4351 29.6483 79.4351 29.883C79.4351 30.1177 79.3507 30.312 79.1821 30.466C79.0207 30.62 78.8117 30.697 78.5551 30.697ZM77.8511 37V31.544H79.2591V37H77.8511ZM83.3467 37.132C82.8187 37.132 82.342 37.011 81.9167 36.769C81.4987 36.527 81.165 36.1933 80.9157 35.768C80.6737 35.3353 80.5527 34.8367 80.5527 34.272C80.5527 33.7073 80.6773 33.2123 80.9267 32.787C81.176 32.3543 81.5097 32.017 81.9277 31.775C82.353 31.533 82.8297 31.412 83.3577 31.412C83.8783 31.412 84.3477 31.533 84.7657 31.775C85.191 32.017 85.5247 32.3543 85.7667 32.787C86.016 33.2123 86.1407 33.7073 86.1407 34.272C86.1407 34.8367 86.016 35.3353 85.7667 35.768C85.5247 36.1933 85.191 36.527 84.7657 36.769C84.3403 37.011 83.8673 37.132 83.3467 37.132ZM83.3467 35.911C83.7133 35.911 84.0323 35.7753 84.3037 35.504C84.575 35.2253 84.7107 34.8147 84.7107 34.272C84.7107 33.7293 84.575 33.3223 84.3037 33.051C84.0323 32.7723 83.717 32.633 83.3577 32.633C82.9837 32.633 82.661 32.7723 82.3897 33.051C82.1257 33.3223 81.9937 33.7293 81.9937 34.272C81.9937 34.8147 82.1257 35.2253 82.3897 35.504C82.661 35.7753 82.98 35.911 83.3467 35.911ZM87.3996 37V31.544H88.6426L88.7526 32.468C88.9212 32.1453 89.1632 31.8887 89.4786 31.698C89.8012 31.5073 90.1789 31.412 90.6116 31.412C91.2862 31.412 91.8106 31.6247 92.1846 32.05C92.5586 32.4753 92.7456 33.0987 92.7456 33.92V37H91.3376V34.052C91.3376 33.5827 91.2422 33.2233 91.0516 32.974C90.8609 32.7247 90.5639 32.6 90.1606 32.6C89.7646 32.6 89.4382 32.7393 89.1816 33.018C88.9322 33.2967 88.8076 33.6853 88.8076 34.184V37H87.3996ZM94.697 37.077C94.4403 37.077 94.2276 36.9963 94.059 36.835C93.8976 36.6737 93.817 36.4793 93.817 36.252C93.817 36.0173 93.8976 35.8193 94.059 35.658C94.2276 35.4967 94.4403 35.416 94.697 35.416C94.9536 35.416 95.1626 35.4967 95.324 35.658C95.4926 35.8193 95.577 36.0173 95.577 36.252C95.577 36.4793 95.4926 36.6737 95.324 36.835C95.1626 36.9963 94.9536 37.077 94.697 37.077ZM99.3886 37V29.3H102.48C103.279 29.3 103.888 29.487 104.306 29.861C104.731 30.2277 104.944 30.7007 104.944 31.28C104.944 31.764 104.812 32.1527 104.548 32.446C104.291 32.732 103.976 32.9263 103.602 33.029C104.042 33.117 104.405 33.337 104.691 33.689C104.977 34.0337 105.12 34.437 105.12 34.899C105.12 35.5077 104.9 36.01 104.46 36.406C104.02 36.802 103.396 37 102.59 37H99.3886ZM100.797 32.534H102.271C102.667 32.534 102.971 32.4423 103.184 32.259C103.396 32.0757 103.503 31.8153 103.503 31.478C103.503 31.1553 103.396 30.9023 103.184 30.719C102.978 30.5283 102.667 30.433 102.249 30.433H100.797V32.534ZM100.797 35.856H102.37C102.788 35.856 103.11 35.7607 103.338 35.57C103.572 35.372 103.69 35.097 103.69 34.745C103.69 34.3857 103.569 34.1033 103.327 33.898C103.085 33.6927 102.758 33.59 102.348 33.59H100.797V35.856ZM108.946 37.132C108.396 37.132 107.908 37.0147 107.483 36.78C107.058 36.5453 106.724 36.2153 106.482 35.79C106.24 35.3647 106.119 34.8733 106.119 34.316C106.119 33.7513 106.236 33.249 106.471 32.809C106.713 32.369 107.043 32.028 107.461 31.786C107.886 31.5367 108.385 31.412 108.957 31.412C109.492 31.412 109.965 31.5293 110.376 31.764C110.787 31.9987 111.106 32.3213 111.333 32.732C111.568 33.1353 111.685 33.5863 111.685 34.085C111.685 34.1657 111.681 34.25 111.674 34.338C111.674 34.426 111.67 34.5177 111.663 34.613H107.516C107.545 35.0383 107.692 35.372 107.956 35.614C108.227 35.856 108.554 35.977 108.935 35.977C109.221 35.977 109.459 35.9147 109.65 35.79C109.848 35.658 109.995 35.4893 110.09 35.284H111.52C111.417 35.6287 111.245 35.944 111.003 36.23C110.768 36.5087 110.475 36.7287 110.123 36.89C109.778 37.0513 109.386 37.132 108.946 37.132ZM108.957 32.556C108.612 32.556 108.308 32.655 108.044 32.853C107.78 33.0437 107.611 33.337 107.538 33.733H110.255C110.233 33.3737 110.101 33.0877 109.859 32.875C109.617 32.6623 109.316 32.556 108.957 32.556ZM115.124 37.132C114.64 37.132 114.215 37.055 113.848 36.901C113.482 36.7397 113.188 36.5197 112.968 36.241C112.748 35.9623 112.616 35.6397 112.572 35.273H113.991C114.035 35.4857 114.153 35.669 114.343 35.823C114.541 35.9697 114.794 36.043 115.102 36.043C115.41 36.043 115.634 35.9807 115.773 35.856C115.92 35.7313 115.993 35.5883 115.993 35.427C115.993 35.1923 115.891 35.0347 115.685 34.954C115.48 34.866 115.194 34.7817 114.827 34.701C114.593 34.6497 114.354 34.5873 114.112 34.514C113.87 34.4407 113.647 34.349 113.441 34.239C113.243 34.1217 113.082 33.975 112.957 33.799C112.833 33.6157 112.77 33.392 112.77 33.128C112.77 32.644 112.961 32.237 113.342 31.907C113.731 31.577 114.274 31.412 114.97 31.412C115.616 31.412 116.129 31.5623 116.51 31.863C116.899 32.1637 117.13 32.578 117.203 33.106H115.872C115.792 32.7027 115.487 32.501 114.959 32.501C114.695 32.501 114.49 32.5523 114.343 32.655C114.204 32.7577 114.134 32.886 114.134 33.04C114.134 33.2013 114.241 33.3297 114.453 33.425C114.666 33.5203 114.948 33.6083 115.3 33.689C115.682 33.777 116.03 33.876 116.345 33.986C116.668 34.0887 116.925 34.2463 117.115 34.459C117.306 34.6643 117.401 34.9613 117.401 35.35C117.409 35.6873 117.321 35.9917 117.137 36.263C116.954 36.5343 116.69 36.747 116.345 36.901C116.001 37.055 115.594 37.132 115.124 37.132ZM120.908 37C120.336 37 119.877 36.8607 119.533 36.582C119.188 36.3033 119.016 35.8083 119.016 35.097V32.721H118.081V31.544H119.016L119.181 30.081H120.424V31.544H121.898V32.721H120.424V35.108C120.424 35.372 120.479 35.5553 120.589 35.658C120.706 35.7533 120.904 35.801 121.183 35.801H121.865V37H120.908ZM125.761 37V29.3H128.61C129.226 29.3 129.735 29.4027 130.139 29.608C130.542 29.8133 130.843 30.0957 131.041 30.455C131.239 30.8143 131.338 31.2177 131.338 31.665C131.338 32.0903 131.242 32.4827 131.052 32.842C130.861 33.194 130.564 33.48 130.161 33.7C129.757 33.9127 129.24 34.019 128.61 34.019H127.169V37H125.761ZM127.169 32.875H128.522C129.013 32.875 129.365 32.7687 129.578 32.556C129.798 32.336 129.908 32.039 129.908 31.665C129.908 31.2837 129.798 30.9867 129.578 30.774C129.365 30.554 129.013 30.444 128.522 30.444H127.169V32.875ZM132.409 37V31.544H133.663L133.795 32.567C133.993 32.215 134.261 31.9363 134.598 31.731C134.943 31.5183 135.346 31.412 135.808 31.412V32.897H135.412C135.104 32.897 134.829 32.9447 134.587 33.04C134.345 33.1353 134.155 33.3003 134.015 33.535C133.883 33.7697 133.817 34.096 133.817 34.514V37H132.409ZM137.53 30.697C137.273 30.697 137.06 30.62 136.892 30.466C136.73 30.312 136.65 30.1177 136.65 29.883C136.65 29.6483 136.73 29.4577 136.892 29.311C137.06 29.157 137.273 29.08 137.53 29.08C137.786 29.08 137.995 29.157 138.157 29.311C138.325 29.4577 138.41 29.6483 138.41 29.883C138.41 30.1177 138.325 30.312 138.157 30.466C137.995 30.62 137.786 30.697 137.53 30.697ZM136.826 37V31.544H138.234V37H136.826ZM142.376 37.132C141.819 37.132 141.328 37.011 140.902 36.769C140.477 36.527 140.14 36.1897 139.89 35.757C139.648 35.3243 139.527 34.8293 139.527 34.272C139.527 33.7147 139.648 33.2197 139.89 32.787C140.14 32.3543 140.477 32.017 140.902 31.775C141.328 31.533 141.819 31.412 142.376 31.412C143.073 31.412 143.66 31.5953 144.136 31.962C144.613 32.3213 144.917 32.82 145.049 33.458H143.564C143.491 33.194 143.344 32.9887 143.124 32.842C142.912 32.688 142.659 32.611 142.365 32.611C141.977 32.611 141.647 32.7577 141.375 33.051C141.104 33.3443 140.968 33.7513 140.968 34.272C140.968 34.7927 141.104 35.1997 141.375 35.493C141.647 35.7863 141.977 35.933 142.365 35.933C142.659 35.933 142.912 35.8597 143.124 35.713C143.344 35.5663 143.491 35.3573 143.564 35.086H145.049C144.917 35.702 144.613 36.197 144.136 36.571C143.66 36.945 143.073 37.132 142.376 37.132ZM148.95 37.132C148.4 37.132 147.912 37.0147 147.487 36.78C147.062 36.5453 146.728 36.2153 146.486 35.79C146.244 35.3647 146.123 34.8733 146.123 34.316C146.123 33.7513 146.24 33.249 146.475 32.809C146.717 32.369 147.047 32.028 147.465 31.786C147.89 31.5367 148.389 31.412 148.961 31.412C149.496 31.412 149.969 31.5293 150.38 31.764C150.791 31.9987 151.11 32.3213 151.337 32.732C151.572 33.1353 151.689 33.5863 151.689 34.085C151.689 34.1657 151.685 34.25 151.678 34.338C151.678 34.426 151.674 34.5177 151.667 34.613H147.52C147.549 35.0383 147.696 35.372 147.96 35.614C148.231 35.856 148.558 35.977 148.939 35.977C149.225 35.977 149.463 35.9147 149.654 35.79C149.852 35.658 149.999 35.4893 150.094 35.284H151.524C151.421 35.6287 151.249 35.944 151.007 36.23C150.772 36.5087 150.479 36.7287 150.127 36.89C149.782 37.0513 149.39 37.132 148.95 37.132ZM148.961 32.556C148.616 32.556 148.312 32.655 148.048 32.853C147.784 33.0437 147.615 33.337 147.542 33.733H150.259C150.237 33.3737 150.105 33.0877 149.863 32.875C149.621 32.6623 149.32 32.556 148.961 32.556ZM155.128 37.132C154.644 37.132 154.219 37.055 153.852 36.901C153.486 36.7397 153.192 36.5197 152.972 36.241C152.752 35.9623 152.62 35.6397 152.576 35.273H153.995C154.039 35.4857 154.157 35.669 154.347 35.823C154.545 35.9697 154.798 36.043 155.106 36.043C155.414 36.043 155.638 35.9807 155.777 35.856C155.924 35.7313 155.997 35.5883 155.997 35.427C155.997 35.1923 155.895 35.0347 155.689 34.954C155.484 34.866 155.198 34.7817 154.831 34.701C154.597 34.6497 154.358 34.5873 154.116 34.514C153.874 34.4407 153.651 34.349 153.445 34.239C153.247 34.1217 153.086 33.975 152.961 33.799C152.837 33.6157 152.774 33.392 152.774 33.128C152.774 32.644 152.965 32.237 153.346 31.907C153.735 31.577 154.278 31.412 154.974 31.412C155.62 31.412 156.133 31.5623 156.514 31.863C156.903 32.1637 157.134 32.578 157.207 33.106H155.876C155.796 32.7027 155.491 32.501 154.963 32.501C154.699 32.501 154.494 32.5523 154.347 32.655C154.208 32.7577 154.138 32.886 154.138 33.04C154.138 33.2013 154.245 33.3297 154.457 33.425C154.67 33.5203 154.952 33.6083 155.304 33.689C155.686 33.777 156.034 33.876 156.349 33.986C156.672 34.0887 156.929 34.2463 157.119 34.459C157.31 34.6643 157.405 34.9613 157.405 35.35C157.413 35.6873 157.325 35.9917 157.141 36.263C156.958 36.5343 156.694 36.747 156.349 36.901C156.005 37.055 155.598 37.132 155.128 37.132ZM159.258 37.077C159.001 37.077 158.788 36.9963 158.62 36.835C158.458 36.6737 158.378 36.4793 158.378 36.252C158.378 36.0173 158.458 35.8193 158.62 35.658C158.788 35.4967 159.001 35.416 159.258 35.416C159.514 35.416 159.723 35.4967 159.885 35.658C160.053 35.8193 160.138 36.0173 160.138 36.252C160.138 36.4793 160.053 36.6737 159.885 36.835C159.723 36.9963 159.514 37.077 159.258 37.077Z" fill="#686B6F" fill-opacity="0.58"></path>
<path d="M6.65856 20.1843C5.53728 20.1843 4.53888 19.9923 3.66336 19.6083C2.78784 19.2243 2.09664 18.7021 1.58976 18.0416C1.08288 17.3658 0.79872 16.6131 0.73728 15.7837H4.63104C4.67712 16.2291 4.88448 16.5901 5.25312 16.8666C5.62176 17.143 6.07488 17.2813 6.61248 17.2813C7.104 17.2813 7.48032 17.1891 7.74144 17.0048C8.01792 16.8051 8.15616 16.5517 8.15616 16.2445C8.15616 15.8758 7.96416 15.607 7.58016 15.4381C7.19616 15.2538 6.57408 15.0541 5.71392 14.839C4.79232 14.624 4.02432 14.4013 3.40992 14.1709C2.79552 13.9251 2.2656 13.5488 1.82016 13.0419C1.37472 12.5197 1.152 11.8208 1.152 10.9453C1.152 10.208 1.35168 9.53984 1.75104 8.9408C2.16576 8.3264 2.7648 7.84256 3.54816 7.48928C4.34688 7.136 5.29152 6.95936 6.38208 6.95936C7.99488 6.95936 9.26208 7.35872 10.1837 8.15744C11.1206 8.95616 11.6582 10.016 11.7965 11.337H8.15616C8.09472 10.8915 7.89504 10.5382 7.55712 10.2771C7.23456 10.016 6.80448 9.88544 6.26688 9.88544C5.80608 9.88544 5.4528 9.9776 5.20704 10.1619C4.96128 10.3309 4.8384 10.569 4.8384 10.8762C4.8384 11.2448 5.0304 11.5213 5.4144 11.7056C5.81376 11.8899 6.42816 12.0742 7.2576 12.2586C8.20992 12.5043 8.9856 12.7501 9.58464 12.9958C10.1837 13.2262 10.7059 13.6102 11.1514 14.1478C11.6122 14.6701 11.8502 15.3766 11.8656 16.2675C11.8656 17.0202 11.6506 17.696 11.2205 18.295C10.8058 18.8787 10.199 19.3395 9.40032 19.6774C8.61696 20.0154 7.70304 20.1843 6.65856 20.1843ZM13.4926 13.5488C13.4926 12.2278 13.7384 11.0682 14.2299 10.0698C14.7368 9.07136 15.4203 8.30336 16.2805 7.76576C17.1406 7.22816 18.1006 6.95936 19.1605 6.95936C20.0667 6.95936 20.8577 7.14368 21.5336 7.51232C22.2248 7.88096 22.7547 8.3648 23.1233 8.96384V7.14368H27.0632V20H23.1233V18.1798C22.7393 18.7789 22.2017 19.2627 21.5105 19.6314C20.8347 20 20.0437 20.1843 19.1374 20.1843C18.0929 20.1843 17.1406 19.9155 16.2805 19.3779C15.4203 18.825 14.7368 18.0493 14.2299 17.0509C13.7384 16.0371 13.4926 14.8698 13.4926 13.5488ZM23.1233 13.5718C23.1233 12.5888 22.8469 11.8131 22.2939 11.2448C21.7563 10.6765 21.0958 10.3923 20.3125 10.3923C19.5291 10.3923 18.8609 10.6765 18.308 11.2448C17.7704 11.7978 17.5016 12.5658 17.5016 13.5488C17.5016 14.5318 17.7704 15.3152 18.308 15.8989C18.8609 16.4672 19.5291 16.7514 20.3125 16.7514C21.0958 16.7514 21.7563 16.4672 22.2939 15.8989C22.8469 15.3306 23.1233 14.5549 23.1233 13.5718ZM35.1436 20.1843C34.0223 20.1843 33.0239 19.9923 32.1484 19.6083C31.2728 19.2243 30.5816 18.7021 30.0748 18.0416C29.5679 17.3658 29.2837 16.6131 29.2223 15.7837H33.116C33.1621 16.2291 33.3695 16.5901 33.7381 16.8666C34.1068 17.143 34.5599 17.2813 35.0975 17.2813C35.589 17.2813 35.9653 17.1891 36.2264 17.0048C36.5029 16.8051 36.6412 16.5517 36.6412 16.2445C36.6412 15.8758 36.4492 15.607 36.0652 15.4381C35.6812 15.2538 35.0591 15.0541 34.1989 14.839C33.2773 14.624 32.5093 14.4013 31.8949 14.1709C31.2805 13.9251 30.7506 13.5488 30.3052 13.0419C29.8597 12.5197 29.637 11.8208 29.637 10.9453C29.637 10.208 29.8367 9.53984 30.236 8.9408C30.6508 8.3264 31.2498 7.84256 32.0332 7.48928C32.8319 7.136 33.7765 6.95936 34.8671 6.95936C36.4799 6.95936 37.7471 7.35872 38.6687 8.15744C39.6056 8.95616 40.1432 10.016 40.2815 11.337H36.6412C36.5797 10.8915 36.38 10.5382 36.0421 10.2771C35.7196 10.016 35.2895 9.88544 34.7519 9.88544C34.2911 9.88544 33.9378 9.9776 33.692 10.1619C33.4463 10.3309 33.3234 10.569 33.3234 10.8762C33.3234 11.2448 33.5154 11.5213 33.8994 11.7056C34.2988 11.8899 34.9132 12.0742 35.7426 12.2586C36.6949 12.5043 37.4706 12.7501 38.0696 12.9958C38.6687 13.2262 39.1909 13.6102 39.6364 14.1478C40.0972 14.6701 40.3352 15.3766 40.3506 16.2675C40.3506 17.0202 40.1356 17.696 39.7055 18.295C39.2908 18.8787 38.684 19.3395 37.8853 19.6774C37.102 20.0154 36.188 20.1843 35.1436 20.1843ZM49.9264 16.6592V20H47.9219C46.4935 20 45.3799 19.6544 44.5811 18.9632C43.7824 18.2566 43.3831 17.1123 43.3831 15.5302V10.4154H41.8163V7.14368H43.3831V4.01024H47.3229V7.14368H49.9034V10.4154H47.3229V15.5763C47.3229 15.9603 47.4151 16.2368 47.5994 16.4058C47.7837 16.5747 48.0909 16.6592 48.521 16.6592H49.9264ZM57.9731 20.1843C56.7136 20.1843 55.577 19.9155 54.5632 19.3779C53.5648 18.8403 52.7738 18.0723 52.1901 17.0739C51.6218 16.0755 51.3376 14.9082 51.3376 13.5718C51.3376 12.2509 51.6295 11.0912 52.2131 10.0928C52.7968 9.07904 53.5955 8.30336 54.6093 7.76576C55.6231 7.22816 56.7597 6.95936 58.0192 6.95936C59.2787 6.95936 60.4154 7.22816 61.4291 7.76576C62.4429 8.30336 63.2416 9.07904 63.8253 10.0928C64.409 11.0912 64.7008 12.2509 64.7008 13.5718C64.7008 14.8928 64.4013 16.0602 63.8023 17.0739C63.2186 18.0723 62.4122 18.8403 61.3831 19.3779C60.3693 19.9155 59.2327 20.1843 57.9731 20.1843ZM57.9731 16.7744C58.7258 16.7744 59.3632 16.4979 59.8855 15.945C60.4231 15.392 60.6919 14.601 60.6919 13.5718C60.6919 12.5427 60.4307 11.7517 59.9085 11.1987C59.4016 10.6458 58.7719 10.3693 58.0192 10.3693C57.2512 10.3693 56.6138 10.6458 56.1069 11.1987C55.6 11.7363 55.3466 12.5274 55.3466 13.5718C55.3466 14.601 55.5923 15.392 56.0839 15.945C56.5907 16.4979 57.2205 16.7744 57.9731 16.7744ZM120.902 20.1843C120.21 20.1843 119.642 19.9846 119.197 19.5853C118.767 19.1706 118.552 18.6637 118.552 18.0646C118.552 17.4502 118.767 16.9357 119.197 16.521C119.642 16.1062 120.21 15.8989 120.902 15.8989C121.578 15.8989 122.13 16.1062 122.561 16.521C123.006 16.9357 123.229 17.4502 123.229 18.0646C123.229 18.6637 123.006 19.1706 122.561 19.5853C122.13 19.9846 121.578 20.1843 120.902 20.1843ZM124.778 13.5718C124.778 12.2355 125.046 11.0682 125.584 10.0698C126.137 9.07136 126.897 8.30336 127.865 7.76576C128.848 7.22816 129.969 6.95936 131.229 6.95936C132.842 6.95936 134.186 7.38176 135.261 8.22656C136.351 9.07136 137.066 10.2618 137.404 11.7978H133.21C132.857 10.8147 132.173 10.3232 131.16 10.3232C130.438 10.3232 129.862 10.6074 129.432 11.1757C129.002 11.7286 128.787 12.5274 128.787 13.5718C128.787 14.6163 129.002 15.4227 129.432 15.991C129.862 16.544 130.438 16.8205 131.16 16.8205C132.173 16.8205 132.857 16.329 133.21 15.3459H137.404C137.066 16.8512 136.351 18.0339 135.261 18.8941C134.17 19.7542 132.826 20.1843 131.229 20.1843C129.969 20.1843 128.848 19.9155 127.865 19.3779C126.897 18.8403 126.137 18.0723 125.584 17.0739C125.046 16.0755 124.778 14.9082 124.778 13.5718ZM145.363 20.1843C144.104 20.1843 142.967 19.9155 141.953 19.3779C140.955 18.8403 140.164 18.0723 139.58 17.0739C139.012 16.0755 138.728 14.9082 138.728 13.5718C138.728 12.2509 139.019 11.0912 139.603 10.0928C140.187 9.07904 140.986 8.30336 141.999 7.76576C143.013 7.22816 144.15 6.95936 145.409 6.95936C146.669 6.95936 147.805 7.22816 148.819 7.76576C149.833 8.30336 150.632 9.07904 151.215 10.0928C151.799 11.0912 152.091 12.2509 152.091 13.5718C152.091 14.8928 151.791 16.0602 151.192 17.0739C150.609 18.0723 149.802 18.8403 148.773 19.3779C147.759 19.9155 146.623 20.1843 145.363 20.1843ZM145.363 16.7744C146.116 16.7744 146.753 16.4979 147.275 15.945C147.813 15.392 148.082 14.601 148.082 13.5718C148.082 12.5427 147.821 11.7517 147.299 11.1987C146.792 10.6458 146.162 10.3693 145.409 10.3693C144.641 10.3693 144.004 10.6458 143.497 11.1987C142.99 11.7363 142.737 12.5274 142.737 13.5718C142.737 14.601 142.982 15.392 143.474 15.945C143.981 16.4979 144.611 16.7744 145.363 16.7744ZM170.585 7.00544C172.183 7.00544 173.45 7.48928 174.387 8.45696C175.339 9.42464 175.816 10.7686 175.816 12.489V20H171.899V13.0189C171.899 12.1894 171.676 11.552 171.231 11.1066C170.801 10.6458 170.201 10.4154 169.433 10.4154C168.665 10.4154 168.059 10.6458 167.613 11.1066C167.183 11.552 166.968 12.1894 166.968 13.0189V20H163.051V13.0189C163.051 12.1894 162.829 11.552 162.383 11.1066C161.953 10.6458 161.354 10.4154 160.586 10.4154C159.818 10.4154 159.211 10.6458 158.766 11.1066C158.336 11.552 158.121 12.1894 158.121 13.0189V20H154.181V7.14368H158.121V8.75648C158.52 8.21888 159.042 7.79648 159.688 7.48928C160.333 7.16672 161.062 7.00544 161.876 7.00544C162.844 7.00544 163.704 7.2128 164.457 7.62752C165.225 8.04224 165.824 8.6336 166.254 9.4016C166.699 8.69504 167.306 8.11904 168.074 7.6736C168.842 7.22816 169.679 7.00544 170.585 7.00544Z" fill="#613E98"></path>
<path d="M66.0076 13.5488C66.0076 12.2278 66.2534 11.0682 66.7449 10.0698C67.2518 9.07136 67.9353 8.30336 68.7955 7.76576C69.6556 7.22816 70.6156 6.95936 71.6755 6.95936C72.5203 6.95936 73.2883 7.136 73.9795 7.48928C74.686 7.84256 75.239 8.31872 75.6383 8.91776V2.9504H79.5782V20H75.6383V18.1568C75.2697 18.7712 74.7398 19.2627 74.0486 19.6314C73.3727 20 72.5817 20.1843 71.6755 20.1843C70.6156 20.1843 69.6556 19.9155 68.7955 19.3779C67.9353 18.825 67.2518 18.0493 66.7449 17.0509C66.2534 16.0371 66.0076 14.8698 66.0076 13.5488ZM75.6383 13.5718C75.6383 12.5888 75.3619 11.8131 74.8089 11.2448C74.2713 10.6765 73.6108 10.3923 72.8275 10.3923C72.0441 10.3923 71.3759 10.6765 70.823 11.2448C70.2854 11.7978 70.0166 12.5658 70.0166 13.5488C70.0166 14.5318 70.2854 15.3152 70.823 15.8989C71.3759 16.4672 72.0441 16.7514 72.8275 16.7514C73.6108 16.7514 74.2713 16.4672 74.8089 15.8989C75.3619 15.3306 75.6383 14.5549 75.6383 13.5718ZM94.5475 13.3645C94.5475 13.7331 94.5245 14.1171 94.4784 14.5165H85.5619C85.6234 15.3152 85.8768 15.9296 86.3222 16.3597C86.783 16.7744 87.3437 16.9818 88.0042 16.9818C88.9872 16.9818 89.6707 16.567 90.0547 15.7376H94.248C94.033 16.5824 93.6413 17.3427 93.073 18.0186C92.52 18.6944 91.8211 19.2243 90.9763 19.6083C90.1315 19.9923 89.1869 20.1843 88.1424 20.1843C86.8829 20.1843 85.7616 19.9155 84.7786 19.3779C83.7955 18.8403 83.0275 18.0723 82.4746 17.0739C81.9216 16.0755 81.6451 14.9082 81.6451 13.5718C81.6451 12.2355 81.9139 11.0682 82.4515 10.0698C83.0045 9.07136 83.7725 8.30336 84.7555 7.76576C85.7386 7.22816 86.8675 6.95936 88.1424 6.95936C89.3866 6.95936 90.4925 7.22048 91.4602 7.74272C92.4278 8.26496 93.1805 9.00992 93.7181 9.9776C94.271 10.9453 94.5475 12.0742 94.5475 13.3645ZM90.5155 12.3277C90.5155 11.6518 90.2851 11.1142 89.8243 10.7149C89.3635 10.3155 88.7875 10.1158 88.0963 10.1158C87.4358 10.1158 86.8752 10.3078 86.4144 10.6918C85.969 11.0758 85.6925 11.6211 85.585 12.3277H90.5155ZM95.8426 13.5488C95.8426 12.2278 96.0884 11.0682 96.5799 10.0698C97.0868 9.07136 97.7703 8.30336 98.6305 7.76576C99.4906 7.22816 100.451 6.95936 101.51 6.95936C102.417 6.95936 103.208 7.14368 103.884 7.51232C104.575 7.88096 105.105 8.3648 105.473 8.96384V7.14368H109.413V20H105.473V18.1798C105.089 18.7789 104.552 19.2627 103.861 19.6314C103.185 20 102.394 20.1843 101.487 20.1843C100.443 20.1843 99.4906 19.9155 98.6305 19.3779C97.7703 18.825 97.0868 18.0493 96.5799 17.0509C96.0884 16.0371 95.8426 14.8698 95.8426 13.5488ZM105.473 13.5718C105.473 12.5888 105.197 11.8131 104.644 11.2448C104.106 10.6765 103.446 10.3923 102.662 10.3923C101.879 10.3923 101.211 10.6765 100.658 11.2448C100.12 11.7978 99.8516 12.5658 99.8516 13.5488C99.8516 14.5318 100.12 15.3152 100.658 15.8989C101.211 16.4672 101.879 16.7514 102.662 16.7514C103.446 16.7514 104.106 16.4672 104.644 15.8989C105.197 15.3306 105.473 14.5549 105.473 13.5718ZM116.203 2.9504V20H112.263V2.9504H116.203Z" fill="#43A69B"></path>
</svg>