<svg width="30" height="18" viewBox="0 0 30 18" fill="none" xmlns="http://www.w3.org/2000/svg">
    <path d="M6.44 17.168C5.272 17.168 4.216 16.968 3.272 16.568C2.344 16.168 1.608 15.592 1.064 14.84C0.52 14.088 0.24 13.2 0.224 12.176H3.824C3.872 12.864 4.112 13.408 4.544 13.808C4.992 14.208 5.6 14.408 6.368 14.408C7.152 14.408 7.768 14.224 8.216 13.856C8.664 13.472 8.888 12.976 8.888 12.368C8.888 11.872 8.736 11.464 8.432 11.144C8.128 10.824 7.744 10.576 7.28 10.4C6.832 10.208 6.208 10 5.408 9.776C4.32 9.456 3.432 9.144 2.744 8.84C2.072 8.52 1.488 8.048 0.992 7.424C0.512 6.784 0.272 5.936 0.272 4.88C0.272 3.888 0.52 3.024 1.016 2.288C1.512 1.552 2.208 0.991999 3.104 0.607999C4 0.208 5.024 0.0079999 6.176 0.0079999C7.904 0.0079999 9.304 0.432 10.376 1.28C11.464 2.112 12.064 3.28 12.176 4.784H8.48C8.448 4.208 8.2 3.736 7.736 3.368C7.288 2.984 6.688 2.792 5.936 2.792C5.28 2.792 4.752 2.96 4.352 3.296C3.968 3.632 3.776 4.12 3.776 4.76C3.776 5.208 3.92 5.584 4.208 5.888C4.512 6.176 4.88 6.416 5.312 6.608C5.76 6.784 6.384 6.992 7.184 7.232C8.272 7.552 9.16 7.872 9.848 8.192C10.536 8.512 11.128 8.992 11.624 9.632C12.12 10.272 12.368 11.112 12.368 12.152C12.368 13.048 12.136 13.88 11.672 14.648C11.208 15.416 10.528 16.032 9.632 16.496C8.736 16.944 7.672 17.168 6.44 17.168Z" fill="#624096"></path>
    <path d="M21.137 0.248C22.897 0.248 24.441 0.592 25.769 1.28C27.113 1.968 28.145 2.952 28.865 4.232C29.601 5.496 29.969 6.968 29.969 8.648C29.969 10.328 29.601 11.8 28.865 13.064C28.145 14.312 27.113 15.28 25.769 15.968C24.441 16.656 22.897 17 21.137 17H15.281V0.248H21.137ZM21.017 14.144C22.777 14.144 24.137 13.664 25.097 12.704C26.057 11.744 26.537 10.392 26.537 8.648C26.537 6.904 26.057 5.544 25.097 4.568C24.137 3.576 22.777 3.08 21.017 3.08H18.641V14.144H21.017Z" fill="#43A69B"></path>
    </svg>